# xmcd
#
# Track frame offsets:
# 150
# 36730
# 57099
# 74354
# 101738
# 136913
# 157496
# 177933
# 202285
# 225152
#
# Disc length: 3283 seconds
#
# Revision: 1
# Processed by: cddbd v1.5.2PL0 Copyright (c) Steve Scherf et al.
# Submitted via: CedeCatalogueitor 2.6.0.6 http://personales.ya.com/cdcatalogueitor
#
DISCID=960cd10a
DTITLE=Homesick James - Shake Your Money Maker
DYEAR=2007
DGENRE=
TTITLE0=Gotta Move
TTITLE1=Set A Date
TTITLE2=Sky Is Crying
TTITLE3=Cross Cut Saw
TTITLE4=That's Alright Mama
TTITLE5=Shake Your Money Maker
TTITLE6=Homesick Boogie
TTITLE7=Woman I Love
TTITLE8=Early In The Morning
TTITLE9=Bottle Up And Go
EXTD=
EXTT0=
EXTT1=
EXTT2=
EXTT3=
EXTT4=
EXTT5=
EXTT6=
EXTT7=
EXTT8=
EXTT9=
PLAYORDER=
